<svg xmlns="http://www.w3.org/2000/svg" xmlns:xlink="http://www.w3.org/1999/xlink" width="500" zoomAndPan="magnify" viewBox="0 0 375 374.999991" height="500" preserveAspectRatio="xMidYMid meet" version="1.0"><defs><g/><clipPath id="21843d6525"><path d="M 152.945312 105.074219 L 201 105.074219 L 201 239 L 152.945312 239 Z M 152.945312 105.074219 " clip-rule="nonzero"/></clipPath><clipPath id="c3ab6bdc9f"><path d="M 207 131 L 255 131 L 255 264.824219 L 207 264.824219 Z M 207 131 " clip-rule="nonzero"/></clipPath><clipPath id="9492f03ca9"><path d="M 271 110 L 279.695312 110 L 279.695312 119 L 271 119 Z M 271 110 " clip-rule="nonzero"/></clipPath></defs><g clip-path="url(#21843d6525)"><path fill="#ffffff" d="M 152.984375 180.257812 L 152.984375 163.566406 C 156.367188 163.382812 158.917969 162.871094 160.632812 162.035156 C 162.347656 161.199219 163.832031 159.800781 165.082031 157.828125 C 166.332031 155.859375 167.191406 153.390625 167.652344 150.421875 C 168.023438 148.195312 168.210938 144.324219 168.210938 138.808594 C 168.210938 129.8125 168.628906 123.542969 169.460938 119.996094 C 170.296875 116.449219 171.800781 113.597656 173.980469 111.441406 C 176.15625 109.285156 179.332031 107.582031 183.503906 106.332031 C 186.332031 105.496094 190.78125 105.078125 196.851562 105.078125 L 200.535156 105.078125 L 200.535156 121.699219 C 195.390625 121.699219 192.089844 121.992188 190.628906 122.570312 C 189.171875 123.148438 188.09375 124.027344 187.398438 125.210938 C 186.703125 126.394531 186.355469 128.421875 186.355469 131.296875 C 186.355469 134.21875 186.144531 139.757812 185.726562 147.917969 C 185.496094 152.507812 184.894531 156.230469 183.921875 159.082031 C 182.949219 161.933594 181.707031 164.285156 180.203125 166.140625 C 178.695312 167.992188 176.390625 169.917969 173.285156 171.914062 C 176.019531 173.488281 178.253906 175.332031 179.992188 177.441406 C 181.730469 179.550781 183.0625 182.113281 183.992188 185.125 C 184.917969 188.140625 185.519531 192.175781 185.796875 197.226562 C 186.121094 204.921875 186.285156 209.835938 186.285156 211.972656 C 186.285156 215.03125 186.65625 217.164062 187.398438 218.367188 C 188.136719 219.574219 189.261719 220.492188 190.769531 221.117188 C 192.273438 221.742188 195.53125 222.054688 200.535156 222.054688 L 200.535156 238.746094 L 196.851562 238.746094 C 190.59375 238.746094 185.796875 238.246094 182.460938 237.25 C 179.125 236.253906 176.308594 234.597656 174.015625 232.277344 C 171.722656 229.960938 170.179688 227.097656 169.390625 223.6875 C 168.601562 220.28125 168.210938 214.914062 168.210938 207.589844 C 168.210938 199.058594 167.839844 193.519531 167.097656 190.96875 C 166.078125 187.257812 164.535156 184.605469 162.472656 183.003906 C 160.410156 181.40625 157.25 180.488281 152.984375 180.257812 " fill-opacity="1" fill-rule="nonzero"/></g><path fill="#eeb30d" d="M 258.453125 139.703125 L 247.570312 139.703125 L 247.570312 128.820312 L 258.453125 128.820312 L 258.453125 139.703125 " fill-opacity="1" fill-rule="nonzero"/><path fill="#eeb30d" d="M 255.882812 161.472656 L 247.570312 161.472656 L 247.570312 153.15625 L 255.882812 153.15625 L 255.882812 161.472656 " fill-opacity="1" fill-rule="nonzero"/><g clip-path="url(#c3ab6bdc9f)"><path fill="#eeb30d" d="M 224.230469 148.023438 L 224.230469 139.703125 L 232.542969 139.703125 L 232.542969 148.023438 Z M 245.375 186.902344 C 243.289062 185.304688 241.738281 182.652344 240.71875 178.941406 C 240.160156 176.847656 239.824219 172.839844 239.714844 166.917969 L 232.542969 166.917969 L 232.542969 156.03125 L 239.558594 156.03125 C 239.382812 151.832031 239.015625 148.5625 238.457031 146.21875 C 237.648438 142.8125 236.105469 139.9375 233.835938 137.597656 C 231.566406 135.257812 228.761719 133.597656 225.425781 132.625 C 222.085938 131.648438 217.292969 131.164062 211.035156 131.164062 L 207.351562 131.164062 L 207.351562 147.785156 C 212.585938 147.785156 215.957031 148.097656 217.464844 148.722656 C 218.96875 149.347656 220.011719 150.242188 220.59375 151.402344 C 221.171875 152.558594 221.484375 154.878906 221.53125 158.355469 C 221.761719 169.390625 222.132812 176.53125 222.644531 179.777344 C 223.429688 184.503906 224.914062 188.398438 227.09375 191.457031 C 228.667969 193.59375 231.171875 195.773438 234.601562 197.996094 C 231.960938 199.527344 229.792969 201.300781 228.101562 203.316406 C 226.410156 205.332031 225.054688 207.792969 224.035156 210.6875 C 223.015625 213.585938 222.390625 217.445312 222.15625 222.269531 C 221.785156 230.242188 221.589844 235.644531 221.566406 238.472656 C 221.542969 241.300781 221.171875 243.304688 220.453125 244.488281 C 219.734375 245.671875 218.613281 246.574219 217.082031 247.203125 C 215.550781 247.828125 212.308594 248.140625 207.351562 248.140625 L 207.351562 264.832031 L 211.035156 264.832031 C 217.105469 264.832031 221.554688 264.414062 224.382812 263.578125 C 228.597656 262.328125 231.796875 260.625 233.976562 258.46875 C 236.152344 256.3125 237.648438 253.449219 238.457031 249.878906 C 239.269531 246.304688 239.675781 240.027344 239.675781 231.03125 C 239.675781 225.5625 239.859375 221.710938 240.230469 219.484375 C 240.742188 216.519531 241.609375 214.050781 242.839844 212.078125 C 244.066406 210.109375 245.539062 208.707031 247.253906 207.871094 C 248.96875 207.039062 251.519531 206.527344 254.902344 206.34375 L 254.902344 189.652344 C 250.636719 189.417969 247.460938 188.503906 245.375 186.902344 " fill-opacity="1" fill-rule="nonzero"/></g><g clip-path="url(#9492f03ca9)"><path fill="#eeb30d" d="M 279.667969 118.5625 L 271.355469 118.5625 L 271.355469 110.246094 L 279.667969 110.246094 L 279.667969 118.5625 " fill-opacity="1" fill-rule="nonzero"/></g><path fill="#eeb30d" d="M 237.984375 128.820312 L 222.464844 128.820312 L 222.464844 113.292969 L 237.984375 113.292969 L 237.984375 128.820312 " fill-opacity="1" fill-rule="nonzero"/><g fill="#eeb30d" fill-opacity="1"><g transform="translate(266.165173, 254.745016)"><g><path d="M 55.46875 2.03125 C 48.226562 2.03125 41.519531 0.773438 35.34375 -1.734375 C 29.164062 -4.242188 23.828125 -7.742188 19.328125 -12.234375 C 14.835938 -16.722656 11.335938 -22.054688 8.828125 -28.234375 C 6.316406 -34.421875 5.0625 -41.132812 5.0625 -48.375 C 5.0625 -55.613281 6.34375 -62.320312 8.90625 -68.5 C 11.46875 -74.6875 14.992188 -80.046875 19.484375 -84.578125 C 23.972656 -89.117188 29.28125 -92.671875 35.40625 -95.234375 C 41.539062 -97.796875 48.179688 -99.078125 55.328125 -99.078125 C 62.859375 -99.078125 69.859375 -97.625 76.328125 -94.71875 C 82.796875 -91.820312 88.398438 -87.671875 93.140625 -82.265625 L 78.359375 -67.9375 C 75.554688 -71.21875 72.25 -73.796875 68.4375 -75.671875 C 64.625 -77.554688 60.445312 -78.5 55.90625 -78.5 C 51.757812 -78.5 47.945312 -77.75 44.46875 -76.25 C 40.988281 -74.757812 37.96875 -72.6875 35.40625 -70.03125 C 32.851562 -67.375 30.875 -64.210938 29.46875 -60.546875 C 28.070312 -56.878906 27.375 -52.921875 27.375 -48.671875 C 27.375 -44.328125 28.097656 -40.316406 29.546875 -36.640625 C 30.992188 -32.972656 32.992188 -29.785156 35.546875 -27.078125 C 38.109375 -24.378906 41.175781 -22.28125 44.75 -20.78125 C 48.320312 -19.289062 52.234375 -18.546875 56.484375 -18.546875 C 61.117188 -18.546875 65.367188 -19.507812 69.234375 -21.4375 C 73.097656 -23.363281 76.378906 -25.972656 79.078125 -29.265625 L 93.859375 -15.203125 C 89.222656 -9.703125 83.644531 -5.453125 77.125 -2.453125 C 70.613281 0.535156 63.394531 2.03125 55.46875 2.03125 Z M 55.46875 2.03125 "/></g></g></g><g fill="#eeb30d" fill-opacity="1"><g transform="translate(51.400088, 293.921429)"><g><path d="M 4.671875 0 L 4.671875 -12.390625 L 0.5625 -12.390625 L 0.5625 -13.734375 L 10.421875 -13.734375 L 10.421875 -12.390625 L 6.3125 -12.390625 L 6.3125 0 Z M 4.671875 0 "/></g></g></g><g fill="#eeb30d" fill-opacity="1"><g transform="translate(78.101637, 293.921429)"><g><path d="M 1.453125 0 L 1.453125 -13.734375 L 9.953125 -13.734375 L 9.953125 -12.390625 L 3.09375 -12.390625 L 3.09375 -7.59375 L 9.359375 -7.59375 L 9.359375 -6.265625 L 3.09375 -6.265625 L 3.09375 -1.359375 L 9.953125 -1.359375 L 9.953125 0 Z M 1.453125 0 "/></g></g></g><g fill="#eeb30d" fill-opacity="1"><g transform="translate(104.881686, 293.921429)"><g><path d="M 7.484375 0.234375 C 6.128906 0.234375 4.960938 -0.0625 3.984375 -0.65625 C 3.015625 -1.25 2.257812 -2.078125 1.71875 -3.140625 C 1.1875 -4.210938 0.921875 -5.457031 0.921875 -6.875 C 0.921875 -8.269531 1.1875 -9.5 1.71875 -10.5625 C 2.257812 -11.632812 3.015625 -12.46875 3.984375 -13.0625 C 4.960938 -13.664062 6.128906 -13.96875 7.484375 -13.96875 C 9.046875 -13.96875 10.320312 -13.59375 11.3125 -12.84375 C 12.300781 -12.09375 12.929688 -11.039062 13.203125 -9.6875 L 11.375 -9.6875 C 11.164062 -10.539062 10.738281 -11.222656 10.09375 -11.734375 C 9.445312 -12.253906 8.578125 -12.515625 7.484375 -12.515625 C 6.492188 -12.515625 5.632812 -12.289062 4.90625 -11.84375 C 4.175781 -11.394531 3.609375 -10.75 3.203125 -9.90625 C 2.804688 -9.0625 2.609375 -8.050781 2.609375 -6.875 C 2.609375 -5.695312 2.804688 -4.6875 3.203125 -3.84375 C 3.609375 -3 4.175781 -2.347656 4.90625 -1.890625 C 5.632812 -1.441406 6.492188 -1.21875 7.484375 -1.21875 C 8.578125 -1.21875 9.445312 -1.46875 10.09375 -1.96875 C 10.738281 -2.476562 11.164062 -3.148438 11.375 -3.984375 L 13.203125 -3.984375 C 12.929688 -2.660156 12.300781 -1.625 11.3125 -0.875 C 10.320312 -0.132812 9.046875 0.234375 7.484375 0.234375 Z M 7.484375 0.234375 "/></g></g></g><g fill="#eeb30d" fill-opacity="1"><g transform="translate(134.723273, 293.921429)"><g><path d="M 1.453125 0 L 1.453125 -13.734375 L 3.09375 -13.734375 L 3.09375 -7.671875 L 10.21875 -7.671875 L 10.21875 -13.734375 L 11.875 -13.734375 L 11.875 0 L 10.21875 0 L 10.21875 -6.3125 L 3.09375 -6.3125 L 3.09375 0 Z M 1.453125 0 "/></g></g></g><g fill="#eeb30d" fill-opacity="1"><g transform="translate(163.760226, 293.921429)"><g><path d="M 1.453125 0 L 1.453125 -13.734375 L 3.09375 -13.734375 L 10.421875 -2.734375 L 10.421875 -13.734375 L 12.0625 -13.734375 L 12.0625 0 L 10.421875 0 L 3.09375 -11.015625 L 3.09375 0 Z M 1.453125 0 "/></g></g></g><g fill="#eeb30d" fill-opacity="1"><g transform="translate(192.993429, 293.921429)"><g><path d="M 7.6875 0.234375 C 6.34375 0.234375 5.160156 -0.0625 4.140625 -0.65625 C 3.128906 -1.25 2.335938 -2.082031 1.765625 -3.15625 C 1.203125 -4.226562 0.921875 -5.46875 0.921875 -6.875 C 0.921875 -8.269531 1.203125 -9.5 1.765625 -10.5625 C 2.335938 -11.632812 3.128906 -12.46875 4.140625 -13.0625 C 5.160156 -13.664062 6.34375 -13.96875 7.6875 -13.96875 C 9.050781 -13.96875 10.238281 -13.664062 11.25 -13.0625 C 12.269531 -12.46875 13.0625 -11.632812 13.625 -10.5625 C 14.1875 -9.5 14.46875 -8.269531 14.46875 -6.875 C 14.46875 -5.46875 14.1875 -4.226562 13.625 -3.15625 C 13.0625 -2.082031 12.269531 -1.25 11.25 -0.65625 C 10.238281 -0.0625 9.050781 0.234375 7.6875 0.234375 Z M 7.6875 -1.21875 C 8.695312 -1.21875 9.582031 -1.441406 10.34375 -1.890625 C 11.113281 -2.347656 11.710938 -3 12.140625 -3.84375 C 12.566406 -4.6875 12.78125 -5.695312 12.78125 -6.875 C 12.78125 -8.050781 12.566406 -9.054688 12.140625 -9.890625 C 11.710938 -10.722656 11.113281 -11.363281 10.34375 -11.8125 C 9.582031 -12.269531 8.695312 -12.5 7.6875 -12.5 C 6.6875 -12.5 5.800781 -12.269531 5.03125 -11.8125 C 4.269531 -11.363281 3.675781 -10.722656 3.25 -9.890625 C 2.820312 -9.054688 2.609375 -8.050781 2.609375 -6.875 C 2.609375 -5.695312 2.820312 -4.6875 3.25 -3.84375 C 3.675781 -3 4.269531 -2.347656 5.03125 -1.890625 C 5.800781 -1.441406 6.6875 -1.21875 7.6875 -1.21875 Z M 7.6875 -1.21875 "/></g></g></g><g fill="#eeb30d" fill-opacity="1"><g transform="translate(224.091036, 293.921429)"><g><path d="M 1.453125 0 L 1.453125 -13.734375 L 3.09375 -13.734375 L 3.09375 -1.3125 L 9.5 -1.3125 L 9.5 0 Z M 1.453125 0 "/></g></g></g><g fill="#eeb30d" fill-opacity="1"><g transform="translate(250.105712, 293.921429)"><g><path d="M 7.6875 0.234375 C 6.34375 0.234375 5.160156 -0.0625 4.140625 -0.65625 C 3.128906 -1.25 2.335938 -2.082031 1.765625 -3.15625 C 1.203125 -4.226562 0.921875 -5.46875 0.921875 -6.875 C 0.921875 -8.269531 1.203125 -9.5 1.765625 -10.5625 C 2.335938 -11.632812 3.128906 -12.46875 4.140625 -13.0625 C 5.160156 -13.664062 6.34375 -13.96875 7.6875 -13.96875 C 9.050781 -13.96875 10.238281 -13.664062 11.25 -13.0625 C 12.269531 -12.46875 13.0625 -11.632812 13.625 -10.5625 C 14.1875 -9.5 14.46875 -8.269531 14.46875 -6.875 C 14.46875 -5.46875 14.1875 -4.226562 13.625 -3.15625 C 13.0625 -2.082031 12.269531 -1.25 11.25 -0.65625 C 10.238281 -0.0625 9.050781 0.234375 7.6875 0.234375 Z M 7.6875 -1.21875 C 8.695312 -1.21875 9.582031 -1.441406 10.34375 -1.890625 C 11.113281 -2.347656 11.710938 -3 12.140625 -3.84375 C 12.566406 -4.6875 12.78125 -5.695312 12.78125 -6.875 C 12.78125 -8.050781 12.566406 -9.054688 12.140625 -9.890625 C 11.710938 -10.722656 11.113281 -11.363281 10.34375 -11.8125 C 9.582031 -12.269531 8.695312 -12.5 7.6875 -12.5 C 6.6875 -12.5 5.800781 -12.269531 5.03125 -11.8125 C 4.269531 -11.363281 3.675781 -10.722656 3.25 -9.890625 C 2.820312 -9.054688 2.609375 -8.050781 2.609375 -6.875 C 2.609375 -5.695312 2.820312 -4.6875 3.25 -3.84375 C 3.675781 -3 4.269531 -2.347656 5.03125 -1.890625 C 5.800781 -1.441406 6.6875 -1.21875 7.6875 -1.21875 Z M 7.6875 -1.21875 "/></g></g></g><g fill="#eeb30d" fill-opacity="1"><g transform="translate(281.203328, 293.921429)"><g><path d="M 7.359375 0.234375 C 6.078125 0.234375 4.953125 -0.0625 3.984375 -0.65625 C 3.015625 -1.25 2.257812 -2.078125 1.71875 -3.140625 C 1.1875 -4.210938 0.921875 -5.445312 0.921875 -6.84375 C 0.921875 -8.25 1.191406 -9.488281 1.734375 -10.5625 C 2.273438 -11.632812 3.046875 -12.46875 4.046875 -13.0625 C 5.046875 -13.664062 6.226562 -13.96875 7.59375 -13.96875 C 9.132812 -13.96875 10.414062 -13.59375 11.4375 -12.84375 C 12.46875 -12.101562 13.132812 -11.078125 13.4375 -9.765625 L 11.546875 -9.765625 C 11.359375 -10.597656 10.921875 -11.253906 10.234375 -11.734375 C 9.546875 -12.222656 8.664062 -12.46875 7.59375 -12.46875 C 6.582031 -12.46875 5.703125 -12.238281 4.953125 -11.78125 C 4.210938 -11.332031 3.632812 -10.6875 3.21875 -9.84375 C 2.8125 -9.007812 2.609375 -8.007812 2.609375 -6.84375 C 2.609375 -5.6875 2.8125 -4.6875 3.21875 -3.84375 C 3.625 -3.007812 4.1875 -2.363281 4.90625 -1.90625 C 5.625 -1.457031 6.460938 -1.234375 7.421875 -1.234375 C 8.878906 -1.234375 9.984375 -1.660156 10.734375 -2.515625 C 11.484375 -3.378906 11.910156 -4.554688 12.015625 -6.046875 L 8.046875 -6.046875 L 8.046875 -7.34375 L 13.703125 -7.34375 L 13.703125 0 L 12.1875 0 L 12.046875 -2.25 C 11.546875 -1.457031 10.9375 -0.84375 10.21875 -0.40625 C 9.5 0.0195312 8.546875 0.234375 7.359375 0.234375 Z M 7.359375 0.234375 "/></g></g></g><g fill="#eeb30d" fill-opacity="1"><g transform="translate(311.77106, 293.921429)"><g><path d="M 4.859375 0 L 4.859375 -5.21875 L 0.390625 -13.734375 L 2.25 -13.734375 L 5.6875 -6.796875 L 9.125 -13.734375 L 10.96875 -13.734375 L 6.515625 -5.21875 L 6.515625 0 Z M 4.859375 0 "/></g></g></g><g fill="#ffffff" fill-opacity="1"><g transform="translate(25.192375, 205.80708)"><g><path d="M 10.859375 -98.78125 L 21.734375 -98.78125 L 61.703125 -46.203125 L 101.25 -98.78125 L 112.109375 -98.78125 L 112.109375 0 L 90.96875 0 L 90.96875 -54.03125 L 65.609375 -20.5625 L 57.21875 -20.5625 L 32.015625 -53.875 L 32.015625 0 L 10.859375 0 Z M 10.859375 -98.78125 "/></g></g></g></svg>