<svg xmlns="http://www.w3.org/2000/svg" xmlns:xlink="http://www.w3.org/1999/xlink" width="1080" zoomAndPan="magnify" viewBox="0 0 810 809.999993" height="1080" preserveAspectRatio="xMidYMid meet" version="1.0"><defs><clipPath id="81b27d6bdd"><path d="M 0 115 L 701.191406 115 L 701.191406 729.050781 L 0 729.050781 Z M 0 115 " clip-rule="nonzero"/></clipPath><clipPath id="43a42c2947"><path d="M 0 27.800781 L 322 27.800781 L 322 291 L 0 291 Z M 0 27.800781 " clip-rule="nonzero"/></clipPath></defs><g clip-path="url(#81b27d6bdd)"><path fill="#000000" d="M 350.566406 641.394531 C 350.566406 593 311.304688 553.738281 262.910156 553.738281 C 224.816406 553.738281 192.714844 578.21875 180.617188 612.179688 L 154.792969 612.179688 L 63.886719 407.640625 L 151.910156 407.640625 L 197.359375 509.910156 L 332.703125 509.910156 L 365.179688 582.953125 L 428.984375 582.953125 C 441.0625 616.910156 473.179688 641.394531 511.265625 641.394531 C 559.660156 641.394531 598.921875 602.132812 598.921875 553.738281 C 598.921875 505.34375 559.660156 466.082031 511.265625 466.082031 C 473.171875 466.082031 441.054688 490.5625 428.976562 524.523438 L 403.160156 524.523438 L 370.683594 451.46875 L 235.324219 451.46875 L 215.828125 407.640625 L 531.242188 407.640625 C 543.332031 441.597656 575.429688 466.082031 613.535156 466.082031 C 661.9375 466.082031 701.191406 426.820312 701.191406 378.425781 C 701.191406 330.019531 661.9375 290.769531 613.535156 290.769531 C 575.429688 290.769531 543.332031 315.242188 531.242188 349.210938 L 288.3125 349.210938 L 366.203125 232.335938 L 399.757812 232.335938 C 411.847656 266.285156 443.945312 290.769531 482.050781 290.769531 C 530.453125 290.769531 569.707031 251.507812 569.707031 203.113281 C 569.707031 154.71875 530.453125 115.457031 482.050781 115.457031 C 443.945312 115.457031 411.847656 139.9375 399.757812 173.898438 L 334.929688 173.898438 L 218.082031 349.210938 L -0.0585938 349.210938 L -0.0585938 407.648438 L 116.8125 670.617188 L 180.617188 670.617188 C 192.714844 704.566406 224.816406 729.050781 262.910156 729.050781 C 311.304688 729.050781 350.566406 689.789062 350.566406 641.394531 Z M 540.492188 553.738281 C 540.492188 569.894531 527.421875 582.953125 511.273438 582.953125 C 495.121094 582.953125 482.050781 569.894531 482.050781 553.738281 C 482.050781 537.582031 495.121094 524.523438 511.265625 524.523438 C 527.421875 524.523438 540.492188 537.582031 540.492188 553.738281 Z M 452.835938 203.113281 C 452.835938 186.964844 465.921875 173.898438 482.050781 173.898438 C 498.179688 173.898438 511.265625 186.964844 511.265625 203.113281 C 511.265625 219.257812 498.179688 232.328125 482.050781 232.328125 C 465.921875 232.328125 452.835938 219.257812 452.835938 203.113281 Z M 584.320312 378.425781 C 584.320312 362.277344 597.40625 349.210938 613.535156 349.210938 C 629.664062 349.210938 642.75 362.277344 642.75 378.425781 C 642.75 394.578125 629.664062 407.640625 613.535156 407.640625 C 597.40625 407.640625 584.320312 394.578125 584.320312 378.425781 Z M 233.695312 641.394531 C 233.695312 625.238281 246.753906 612.179688 262.910156 612.179688 C 279.066406 612.179688 292.125 625.238281 292.125 641.394531 C 292.125 657.550781 279.066406 670.609375 262.910156 670.609375 C 246.753906 670.609375 233.695312 657.550781 233.695312 641.394531 Z M 233.695312 641.394531 " fill-opacity="1" fill-rule="nonzero"/></g><g clip-path="url(#43a42c2947)"><path fill="#000000" d="M 212.324219 200.175781 C 219.195312 201.910156 226.269531 203.113281 233.695312 203.113281 C 282.089844 203.113281 321.351562 163.851562 321.351562 115.457031 C 321.351562 67.0625 282.089844 27.800781 233.695312 27.800781 C 185.300781 27.800781 146.039062 67.0625 146.039062 115.457031 C 146.039062 135.136719 152.769531 153.105469 163.726562 167.742188 L 120.671875 232.328125 L -0.0585938 232.328125 L -0.0585938 290.769531 L 151.945312 290.769531 Z M 204.46875 115.457031 C 204.46875 99.308594 217.539062 86.242188 233.695312 86.242188 C 249.839844 86.242188 262.910156 99.308594 262.910156 115.457031 C 262.910156 131.601562 249.839844 144.671875 233.695312 144.671875 C 217.539062 144.671875 204.46875 131.601562 204.46875 115.457031 Z M 204.46875 115.457031 " fill-opacity="1" fill-rule="nonzero"/></g></svg>