<svg xmlns="http://www.w3.org/2000/svg" xmlns:xlink="http://www.w3.org/1999/xlink" width="500" zoomAndPan="magnify" viewBox="0 0 375 374.999991" height="500" preserveAspectRatio="xMidYMid meet" version="1.0"><defs><clipPath id="e111adeee5"><path d="M 53.65625 18.878906 L 155 18.878906 L 155 302 L 53.65625 302 Z M 53.65625 18.878906 " clip-rule="nonzero"/></clipPath><clipPath id="152de7fa35"><path d="M 168 73 L 270 73 L 270 356.378906 L 168 356.378906 Z M 168 73 " clip-rule="nonzero"/></clipPath><clipPath id="f297d1c93d"><path d="M 303 29 L 321.40625 29 L 321.40625 48 L 303 48 Z M 303 29 " clip-rule="nonzero"/></clipPath></defs><g clip-path="url(#e111adeee5)"><path fill="#393536" d="M 53.738281 177.71875 L 53.738281 142.453125 C 60.882812 142.066406 66.269531 140.984375 69.890625 139.222656 C 73.511719 137.457031 76.648438 134.5 79.289062 130.332031 C 81.933594 126.167969 83.746094 120.957031 84.722656 114.683594 C 85.503906 109.984375 85.898438 101.804688 85.898438 90.148438 C 85.898438 71.144531 86.78125 57.894531 88.542969 50.402344 C 90.304688 42.910156 93.484375 36.882812 98.085938 32.332031 C 102.6875 27.773438 109.394531 24.175781 118.207031 21.53125 C 124.175781 19.769531 133.574219 18.886719 146.402344 18.886719 L 154.183594 18.886719 L 154.183594 54.003906 C 143.320312 54.003906 136.34375 54.617188 133.257812 55.839844 C 130.175781 57.066406 127.898438 58.921875 126.429688 61.421875 C 124.960938 63.917969 124.230469 68.207031 124.230469 74.28125 C 124.230469 80.449219 123.785156 92.15625 122.90625 109.394531 C 122.414062 119.089844 121.144531 126.953125 119.085938 132.976562 C 117.03125 139 114.410156 143.972656 111.230469 147.890625 C 108.046875 151.808594 103.175781 155.875 96.617188 160.085938 C 102.394531 163.417969 107.117188 167.308594 110.789062 171.765625 C 114.460938 176.222656 117.273438 181.632812 119.234375 188.003906 C 121.191406 194.367188 122.464844 202.890625 123.050781 213.566406 C 123.738281 229.828125 124.078125 240.210938 124.078125 244.71875 C 124.078125 251.179688 124.863281 255.683594 126.429688 258.234375 C 127.996094 260.78125 130.371094 262.714844 133.550781 264.039062 C 136.730469 265.359375 143.613281 266.019531 154.183594 266.019531 L 154.183594 301.28125 L 146.402344 301.28125 C 133.183594 301.28125 123.050781 300.226562 116.003906 298.125 C 108.953125 296.019531 103.007812 292.515625 98.160156 287.617188 C 93.316406 282.71875 90.058594 276.671875 88.394531 269.472656 C 86.730469 262.273438 85.898438 250.933594 85.898438 235.460938 C 85.898438 217.4375 85.113281 205.730469 83.546875 200.34375 C 81.394531 192.507812 78.140625 186.898438 73.78125 183.519531 C 69.425781 180.140625 62.742188 178.207031 53.738281 177.71875 " fill-opacity="1" fill-rule="nonzero"/></g><path fill="#eeb30d" d="M 276.53125 92.042969 L 253.546875 92.042969 L 253.546875 69.042969 L 276.53125 69.042969 L 276.53125 92.042969 " fill-opacity="1" fill-rule="nonzero"/><path fill="#eeb30d" d="M 271.105469 138.03125 L 253.546875 138.03125 L 253.546875 120.464844 L 271.105469 120.464844 L 271.105469 138.03125 " fill-opacity="1" fill-rule="nonzero"/><g clip-path="url(#152de7fa35)"><path fill="#eeb30d" d="M 204.238281 109.613281 L 204.238281 92.042969 L 221.796875 92.042969 L 221.796875 109.613281 Z M 248.90625 191.757812 C 244.5 188.378906 241.222656 182.773438 239.066406 174.9375 C 237.882812 170.515625 237.179688 162.042969 236.949219 149.53125 L 221.796875 149.53125 L 221.796875 126.535156 L 236.613281 126.535156 C 236.246094 117.667969 235.472656 110.757812 234.292969 105.804688 C 232.582031 98.605469 229.324219 92.53125 224.53125 87.589844 C 219.734375 82.644531 213.808594 79.136719 206.761719 77.082031 C 199.710938 75.023438 189.582031 73.996094 176.359375 73.996094 L 168.578125 73.996094 L 168.578125 109.109375 C 179.640625 109.109375 186.761719 109.773438 189.945312 111.09375 C 193.125 112.417969 195.328125 114.304688 196.554688 116.75 C 197.777344 119.199219 198.4375 124.097656 198.535156 131.445312 C 199.027344 154.757812 199.808594 169.839844 200.886719 176.699219 C 202.546875 186.691406 205.679688 194.914062 210.285156 201.382812 C 213.613281 205.886719 218.898438 210.492188 226.144531 215.191406 C 220.566406 218.425781 215.984375 222.171875 212.414062 226.433594 C 208.839844 230.695312 205.976562 235.886719 203.824219 242.007812 C 201.667969 248.128906 200.347656 256.285156 199.855469 266.472656 C 199.074219 283.320312 198.65625 294.726562 198.613281 300.703125 C 198.558594 306.679688 197.777344 310.917969 196.261719 313.414062 C 194.742188 315.914062 192.371094 317.824219 189.136719 319.148438 C 185.90625 320.46875 179.050781 321.128906 168.578125 321.128906 L 168.578125 356.390625 L 176.359375 356.390625 C 189.1875 356.390625 198.585938 355.507812 204.554688 353.746094 C 213.464844 351.101562 220.21875 347.503906 224.824219 342.949219 C 229.425781 338.394531 232.582031 332.34375 234.292969 324.800781 C 236.007812 317.257812 236.867188 303.988281 236.867188 284.984375 C 236.867188 273.425781 237.257812 265.296875 238.039062 260.59375 C 239.117188 254.328125 240.953125 249.109375 243.546875 244.945312 C 246.140625 240.785156 249.25 237.820312 252.875 236.058594 C 256.492188 234.292969 261.878906 233.214844 269.027344 232.824219 L 269.027344 197.5625 C 260.015625 197.074219 253.3125 195.136719 248.90625 191.757812 " fill-opacity="1" fill-rule="nonzero"/></g><g clip-path="url(#f297d1c93d)"><path fill="#eeb30d" d="M 321.347656 47.378906 L 303.785156 47.378906 L 303.785156 29.804688 L 321.347656 29.804688 L 321.347656 47.378906 " fill-opacity="1" fill-rule="nonzero"/></g><path fill="#eeb30d" d="M 233.289062 69.042969 L 200.507812 69.042969 L 200.507812 36.246094 L 233.289062 36.246094 L 233.289062 69.042969 " fill-opacity="1" fill-rule="nonzero"/></svg>